<mxfile host="app.diagrams.net" modified="2023-05-12T19:42:03.641Z" agent="Mozilla/5.0 (Windows NT 10.0; Win64; x64) AppleWebKit/537.36 (KHTML, like Gecko) Chrome/113.0.0.0 Safari/537.36" etag="tH4gvT1vc1XRcatvgdoS" version="21.2.9" type="device">
  <diagram id="RGB6mBJJ5xYj03sK9fqy" name="Страница 1">
    <mxGraphModel dx="1389" dy="943" grid="0" gridSize="10" guides="1" tooltips="1" connect="1" arrows="1" fold="1" page="0" pageScale="1" pageWidth="827" pageHeight="1169" background="none" math="0" shadow="0">
      <root>
        <mxCell id="0" />
        <mxCell id="1" parent="0" />
        <mxCell id="node0" value="&lt;p style=&quot;margin:0px;margin-top:4px;text-align:center;&quot;&gt;&lt;b&gt;company&lt;/b&gt;&lt;/p&gt;&lt;hr size=&quot;1&quot;/&gt;&lt;p style=&quot;margin:0 0 0 4px;line-height:1.6;&quot;&gt; name: varchar(255)&lt;/p&gt;&lt;hr size=&quot;1&quot;/&gt;&lt;p style=&quot;margin:0 0 0 4px;line-height:1.6;&quot;&gt; id: integer&lt;/p&gt;" style="verticalAlign=top;align=left;overflow=fill;fontSize=14;fontFamily=Helvetica;html=1;rounded=0;shadow=0;comic=0;labelBackgroundColor=none;strokeWidth=1;" parent="1" vertex="1">
          <mxGeometry x="-66" y="-94" width="132" height="83" as="geometry" />
        </mxCell>
        <mxCell id="node3" value="&lt;p style=&quot;margin:0px;margin-top:4px;text-align:center;&quot;&gt;&lt;b&gt;pass_in_trip&lt;/b&gt;&lt;/p&gt;&lt;hr size=&quot;1&quot;/&gt;&lt;p style=&quot;margin:0 0 0 4px;line-height:1.6;&quot;&gt; trip: integer&lt;br/&gt; passenger: integer&lt;br/&gt; place: varchar(10)&lt;/p&gt;&lt;hr size=&quot;1&quot;/&gt;&lt;p style=&quot;margin:0 0 0 4px;line-height:1.6;&quot;&gt; id: integer&lt;/p&gt;" style="verticalAlign=top;align=left;overflow=fill;fontSize=14;fontFamily=Helvetica;html=1;rounded=0;shadow=0;comic=0;labelBackgroundColor=none;strokeWidth=1;" parent="1" vertex="1">
          <mxGeometry x="18" y="270" width="129" height="131" as="geometry" />
        </mxCell>
        <mxCell id="node1" value="&lt;p style=&quot;margin:0px;margin-top:4px;text-align:center;&quot;&gt;&lt;b&gt;passenger&lt;/b&gt;&lt;/p&gt;&lt;hr size=&quot;1&quot;/&gt;&lt;p style=&quot;margin:0 0 0 4px;line-height:1.6;&quot;&gt; name: varchar(255)&lt;/p&gt;&lt;hr size=&quot;1&quot;/&gt;&lt;p style=&quot;margin:0 0 0 4px;line-height:1.6;&quot;&gt; id: integer&lt;/p&gt;" style="verticalAlign=top;align=left;overflow=fill;fontSize=14;fontFamily=Helvetica;html=1;rounded=0;shadow=0;comic=0;labelBackgroundColor=none;strokeWidth=1;" parent="1" vertex="1">
          <mxGeometry x="99" y="88" width="132" height="83" as="geometry" />
        </mxCell>
        <mxCell id="node2" value="&lt;p style=&quot;margin:0px;margin-top:4px;text-align:center;&quot;&gt;&lt;b&gt;trip&lt;/b&gt;&lt;/p&gt;&lt;hr size=&quot;1&quot;/&gt;&lt;p style=&quot;margin:0 0 0 4px;line-height:1.6;&quot;&gt; company_id: integer&lt;br/&gt; plane: varchar(50)&lt;br/&gt; town_from: varchar(50)&lt;br/&gt; town_to: varchar(50)&lt;br/&gt; time_out: timestamp&lt;br/&gt; time_in: timestamp&lt;/p&gt;&lt;hr size=&quot;1&quot;/&gt;&lt;p style=&quot;margin:0 0 0 4px;line-height:1.6;&quot;&gt; id: integer&lt;/p&gt;" style="verticalAlign=top;align=left;overflow=fill;fontSize=14;fontFamily=Helvetica;html=1;rounded=0;shadow=0;comic=0;labelBackgroundColor=none;strokeWidth=1;" parent="1" vertex="1">
          <mxGeometry x="-78" y="33" width="157" height="187" as="geometry" />
        </mxCell>
        <mxCell id="edge1" value="" style="html=1;rounded=1;edgeStyle=orthogonalEdgeStyle;dashed=0;startArrow=none;endArrow=block;endSize=12;strokeColor=#595959;exitX=0.750;exitY=0.000;exitDx=0;exitDy=0;entryX=0.500;entryY=1.001;entryDx=0;entryDy=0;" parent="1" source="node3" target="node1" edge="1">
          <mxGeometry width="50" height="50" relative="1" as="geometry">
            <Array as="points">
              <mxPoint x="115" y="245" />
              <mxPoint x="165" y="245" />
            </Array>
          </mxGeometry>
        </mxCell>
        <mxCell id="label8" value="passenger:id" style="edgeLabel;resizable=0;html=1;align=left;verticalAlign=top;strokeColor=default;" parent="edge1" vertex="1" connectable="0">
          <mxGeometry x="88" y="215" as="geometry" />
        </mxCell>
        <mxCell id="edge2" value="" style="html=1;rounded=1;edgeStyle=orthogonalEdgeStyle;dashed=0;startArrow=none;endArrow=block;endSize=12;strokeColor=#595959;exitX=0.250;exitY=0.000;exitDx=0;exitDy=0;entryX=0.500;entryY=1.000;entryDx=0;entryDy=0;" parent="1" source="node3" target="node2" edge="1">
          <mxGeometry width="50" height="50" relative="1" as="geometry">
            <Array as="points">
              <mxPoint x="50" y="245" />
              <mxPoint y="245" />
            </Array>
          </mxGeometry>
        </mxCell>
        <mxCell id="label14" value="trip:id" style="edgeLabel;resizable=0;html=1;align=left;verticalAlign=top;strokeColor=default;" parent="edge2" vertex="1" connectable="0">
          <mxGeometry x="16" y="235" as="geometry" />
        </mxCell>
        <mxCell id="edge0" value="" style="html=1;rounded=1;edgeStyle=orthogonalEdgeStyle;dashed=0;startArrow=none;endArrow=block;endSize=12;strokeColor=#595959;exitX=0.500;exitY=0.000;exitDx=0;exitDy=0;entryX=0.500;entryY=1.001;entryDx=0;entryDy=0;" parent="1" source="node2" target="node0" edge="1">
          <mxGeometry width="50" height="50" relative="1" as="geometry">
            <Array as="points" />
          </mxGeometry>
        </mxCell>
        <mxCell id="label2" value="company_id:id" style="edgeLabel;resizable=0;html=1;align=left;verticalAlign=top;strokeColor=default;" parent="edge0" vertex="1" connectable="0">
          <mxGeometry x="-84" y="-2" as="geometry" />
        </mxCell>
        <mxCell id="hHapDc5lLIlILEcuPOZc-1" value="" style="rounded=0;whiteSpace=wrap;html=1;" vertex="1" parent="1">
          <mxGeometry x="460" y="60" width="550" height="390" as="geometry" />
        </mxCell>
        <mxCell id="hHapDc5lLIlILEcuPOZc-2" value="&lt;font style=&quot;font-size: 14px;&quot; face=&quot;Times New Roman&quot;&gt;Авторизация&lt;/font&gt;" style="ellipse;whiteSpace=wrap;html=1;" vertex="1" parent="1">
          <mxGeometry x="490" y="160" width="230" height="50" as="geometry" />
        </mxCell>
        <mxCell id="hHapDc5lLIlILEcuPOZc-3" value="&lt;font face=&quot;Times New Roman&quot; style=&quot;font-size: 14px;&quot;&gt;Создание задач&lt;/font&gt;" style="ellipse;whiteSpace=wrap;html=1;" vertex="1" parent="1">
          <mxGeometry x="750" y="90" width="230" height="50" as="geometry" />
        </mxCell>
        <mxCell id="hHapDc5lLIlILEcuPOZc-4" value="&lt;font style=&quot;font-size: 14px;&quot; face=&quot;Times New Roman&quot;&gt;Неавторизированный &lt;br&gt;пользователь&lt;/font&gt;" style="shape=umlActor;verticalLabelPosition=bottom;verticalAlign=top;html=1;outlineConnect=0;" vertex="1" parent="1">
          <mxGeometry x="370" y="120" width="30" height="60" as="geometry" />
        </mxCell>
        <mxCell id="hHapDc5lLIlILEcuPOZc-5" value="" style="endArrow=classic;html=1;rounded=0;entryX=0;entryY=0.5;entryDx=0;entryDy=0;" edge="1" parent="1" target="hHapDc5lLIlILEcuPOZc-2">
          <mxGeometry width="50" height="50" relative="1" as="geometry">
            <mxPoint x="410" y="150" as="sourcePoint" />
            <mxPoint x="150" y="200" as="targetPoint" />
          </mxGeometry>
        </mxCell>
        <mxCell id="hHapDc5lLIlILEcuPOZc-6" value="&lt;font style=&quot;font-size: 14px;&quot; face=&quot;Times New Roman&quot;&gt;Авторизированный&lt;br&gt;пользователь&lt;/font&gt;" style="shape=umlActor;verticalLabelPosition=bottom;verticalAlign=top;html=1;outlineConnect=0;" vertex="1" parent="1">
          <mxGeometry x="1118" y="230" width="30" height="60" as="geometry" />
        </mxCell>
        <mxCell id="hHapDc5lLIlILEcuPOZc-7" style="edgeStyle=orthogonalEdgeStyle;rounded=0;orthogonalLoop=1;jettySize=auto;html=1;exitX=0.5;exitY=0;exitDx=0;exitDy=0;entryX=0.5;entryY=1;entryDx=0;entryDy=0;" edge="1" parent="1" source="hHapDc5lLIlILEcuPOZc-8" target="hHapDc5lLIlILEcuPOZc-2">
          <mxGeometry relative="1" as="geometry" />
        </mxCell>
        <mxCell id="hHapDc5lLIlILEcuPOZc-8" value="&lt;font face=&quot;Times New Roman&quot; style=&quot;font-size: 14px;&quot;&gt;Неверный логин/пароль&lt;/font&gt;" style="ellipse;whiteSpace=wrap;html=1;" vertex="1" parent="1">
          <mxGeometry x="490" y="230" width="230" height="50" as="geometry" />
        </mxCell>
        <mxCell id="hHapDc5lLIlILEcuPOZc-9" value="&lt;font face=&quot;Times New Roman&quot; style=&quot;font-size: 14px;&quot;&gt;Исключая&lt;/font&gt;" style="text;html=1;strokeColor=none;fillColor=none;align=center;verticalAlign=middle;whiteSpace=wrap;rounded=0;" vertex="1" parent="1">
          <mxGeometry x="615" y="205" width="60" height="30" as="geometry" />
        </mxCell>
        <mxCell id="hHapDc5lLIlILEcuPOZc-10" value="&lt;font face=&quot;Times New Roman&quot; style=&quot;font-size: 14px;&quot;&gt;Решение задач&lt;/font&gt;" style="ellipse;whiteSpace=wrap;html=1;" vertex="1" parent="1">
          <mxGeometry x="750" y="160" width="230" height="50" as="geometry" />
        </mxCell>
        <mxCell id="hHapDc5lLIlILEcuPOZc-11" value="&lt;font face=&quot;Times New Roman&quot; style=&quot;font-size: 14px;&quot;&gt;Комментирование задач&lt;/font&gt;" style="ellipse;whiteSpace=wrap;html=1;" vertex="1" parent="1">
          <mxGeometry x="750" y="230" width="230" height="50" as="geometry" />
        </mxCell>
        <mxCell id="hHapDc5lLIlILEcuPOZc-12" value="&lt;font face=&quot;Times New Roman&quot; style=&quot;font-size: 14px;&quot;&gt;Просмотр задач&lt;/font&gt;" style="ellipse;whiteSpace=wrap;html=1;" vertex="1" parent="1">
          <mxGeometry x="750" y="300" width="230" height="50" as="geometry" />
        </mxCell>
        <mxCell id="hHapDc5lLIlILEcuPOZc-13" value="&lt;font face=&quot;Times New Roman&quot; style=&quot;font-size: 14px;&quot;&gt;Участие в обсуждениях&lt;/font&gt;" style="ellipse;whiteSpace=wrap;html=1;" vertex="1" parent="1">
          <mxGeometry x="750" y="370" width="230" height="50" as="geometry" />
        </mxCell>
        <mxCell id="hHapDc5lLIlILEcuPOZc-14" value="" style="endArrow=classic;html=1;rounded=0;entryX=1;entryY=0.5;entryDx=0;entryDy=0;" edge="1" parent="1" target="hHapDc5lLIlILEcuPOZc-3">
          <mxGeometry width="50" height="50" relative="1" as="geometry">
            <mxPoint x="1110" y="260" as="sourcePoint" />
            <mxPoint x="710" y="180" as="targetPoint" />
          </mxGeometry>
        </mxCell>
        <mxCell id="hHapDc5lLIlILEcuPOZc-15" value="" style="endArrow=classic;html=1;rounded=0;entryX=1;entryY=0.5;entryDx=0;entryDy=0;" edge="1" parent="1" target="hHapDc5lLIlILEcuPOZc-10">
          <mxGeometry width="50" height="50" relative="1" as="geometry">
            <mxPoint x="1110" y="260" as="sourcePoint" />
            <mxPoint x="990" y="125" as="targetPoint" />
          </mxGeometry>
        </mxCell>
        <mxCell id="hHapDc5lLIlILEcuPOZc-16" value="" style="endArrow=classic;html=1;rounded=0;entryX=1;entryY=0.5;entryDx=0;entryDy=0;" edge="1" parent="1" target="hHapDc5lLIlILEcuPOZc-11">
          <mxGeometry width="50" height="50" relative="1" as="geometry">
            <mxPoint x="1110" y="260" as="sourcePoint" />
            <mxPoint x="990" y="195" as="targetPoint" />
          </mxGeometry>
        </mxCell>
        <mxCell id="hHapDc5lLIlILEcuPOZc-17" value="" style="endArrow=classic;html=1;rounded=0;entryX=1;entryY=0.5;entryDx=0;entryDy=0;" edge="1" parent="1" target="hHapDc5lLIlILEcuPOZc-12">
          <mxGeometry width="50" height="50" relative="1" as="geometry">
            <mxPoint x="1110" y="260" as="sourcePoint" />
            <mxPoint x="990" y="265" as="targetPoint" />
          </mxGeometry>
        </mxCell>
        <mxCell id="hHapDc5lLIlILEcuPOZc-18" value="" style="endArrow=classic;html=1;rounded=0;entryX=1;entryY=0.5;entryDx=0;entryDy=0;" edge="1" parent="1" target="hHapDc5lLIlILEcuPOZc-13">
          <mxGeometry width="50" height="50" relative="1" as="geometry">
            <mxPoint x="1110" y="260" as="sourcePoint" />
            <mxPoint x="990" y="335" as="targetPoint" />
          </mxGeometry>
        </mxCell>
        <mxCell id="hHapDc5lLIlILEcuPOZc-19" value="&lt;font face=&quot;Times New Roman&quot;&gt;&lt;span style=&quot;font-size: 14px;&quot;&gt;Администратор&lt;/span&gt;&lt;/font&gt;" style="shape=umlActor;verticalLabelPosition=bottom;verticalAlign=top;html=1;outlineConnect=0;" vertex="1" parent="1">
          <mxGeometry x="370" y="330" width="30" height="60" as="geometry" />
        </mxCell>
        <mxCell id="hHapDc5lLIlILEcuPOZc-20" value="&lt;font face=&quot;Times New Roman&quot; style=&quot;font-size: 14px;&quot;&gt;Управление задачами&lt;/font&gt;" style="ellipse;whiteSpace=wrap;html=1;" vertex="1" parent="1">
          <mxGeometry x="490" y="300" width="230" height="50" as="geometry" />
        </mxCell>
        <mxCell id="hHapDc5lLIlILEcuPOZc-21" value="&lt;font face=&quot;Times New Roman&quot; style=&quot;font-size: 14px;&quot;&gt;Управление комментариями&lt;/font&gt;" style="ellipse;whiteSpace=wrap;html=1;" vertex="1" parent="1">
          <mxGeometry x="490" y="370" width="230" height="50" as="geometry" />
        </mxCell>
        <mxCell id="hHapDc5lLIlILEcuPOZc-22" value="" style="endArrow=classic;html=1;rounded=0;entryX=0;entryY=0.5;entryDx=0;entryDy=0;" edge="1" parent="1" target="hHapDc5lLIlILEcuPOZc-20">
          <mxGeometry width="50" height="50" relative="1" as="geometry">
            <mxPoint x="410" y="359.5" as="sourcePoint" />
            <mxPoint x="490" y="359.5" as="targetPoint" />
          </mxGeometry>
        </mxCell>
        <mxCell id="hHapDc5lLIlILEcuPOZc-23" value="" style="endArrow=classic;html=1;rounded=0;entryX=0;entryY=0.5;entryDx=0;entryDy=0;" edge="1" parent="1" target="hHapDc5lLIlILEcuPOZc-21">
          <mxGeometry width="50" height="50" relative="1" as="geometry">
            <mxPoint x="410" y="360" as="sourcePoint" />
            <mxPoint x="500" y="335" as="targetPoint" />
          </mxGeometry>
        </mxCell>
        <mxCell id="hHapDc5lLIlILEcuPOZc-24" value="&lt;font face=&quot;Times New Roman&quot; style=&quot;font-size: 14px;&quot;&gt;Регистрация&lt;/font&gt;" style="ellipse;whiteSpace=wrap;html=1;" vertex="1" parent="1">
          <mxGeometry x="490" y="90" width="230" height="50" as="geometry" />
        </mxCell>
        <mxCell id="hHapDc5lLIlILEcuPOZc-25" value="" style="endArrow=classic;html=1;rounded=0;entryX=0;entryY=0.5;entryDx=0;entryDy=0;" edge="1" parent="1" target="hHapDc5lLIlILEcuPOZc-24">
          <mxGeometry width="50" height="50" relative="1" as="geometry">
            <mxPoint x="410" y="150" as="sourcePoint" />
            <mxPoint x="500" y="195" as="targetPoint" />
          </mxGeometry>
        </mxCell>
      </root>
    </mxGraphModel>
  </diagram>
</mxfile>
